<?xml version="1.0" standalone="no"?>
<!DOCTYPE svg PUBLIC "-//W3C//DTD SVG 20010904//EN"
 "http://www.w3.org/TR/2001/REC-SVG-20010904/DTD/svg10.dtd">
<svg version="1.0" xmlns="http://www.w3.org/2000/svg"
 width="512.000000pt" height="512.000000pt" viewBox="0 0 512.000000 512.000000"
 preserveAspectRatio="xMidYMid meet">
<metadata>
Created by potrace 1.11, written by Peter Selinger 2001-2013
</metadata>
<g transform="translate(0.000000,512.000000) scale(0.100000,-0.100000)"
fill="#000000" stroke="none">
<path d="M4074 4680 c-72 -29 -99 -139 -48 -199 17 -21 44 -36 82 -47 385
-111 666 -416 747 -812 20 -96 36 -126 79 -146 45 -21 84 -20 123 4 69 42 76
101 32 275 -107 417 -433 766 -848 905 -91 31 -130 35 -167 20z"/>
<path d="M3979 4186 c-58 -33 -78 -111 -45 -174 12 -24 39 -42 120 -81 168
-81 262 -193 306 -364 10 -42 24 -84 31 -95 35 -56 136 -70 188 -26 47 39 54
84 31 183 -25 104 -85 226 -151 308 -138 174 -386 302 -480 249z"/>
<path d="M2323 3821 c-96 -35 -189 -115 -234 -203 -49 -96 -49 -79 -49 -1379
0 -837 3 -1234 11 -1275 25 -135 112 -248 236 -307 l68 -32 705 -3 c683 -3
706 -2 771 18 111 33 204 116 258 230 l26 55 3 1062 2 1061 -80 -41 c-76 -39
-87 -42 -180 -45 l-100 -4 0 -973 c0 -872 -2 -975 -16 -989 -14 -14 -87 -16
-658 -16 -539 0 -645 2 -662 14 -19 14 -19 40 -21 1223 -2 961 0 1213 10 1233
l13 25 466 3 466 2 11 49 c23 107 95 218 185 283 l39 28 -609 0 c-568 -1 -612
-2 -661 -19z"/>
<path d="M3712 3664 c-169 -84 -197 -308 -55 -434 46 -40 120 -70 173 -70 93
0 198 69 242 158 47 99 18 238 -64 307 -84 71 -201 86 -296 39z"/>
<path d="M1096 3475 c-42 -22 -55 -44 -56 -94 0 -42 4 -47 102 -147 l102 -104
-588 0 -588 0 -34 -34 c-47 -47 -47 -95 0 -142 l34 -34 588 0 588 0 -102 -104
c-95 -96 -102 -106 -102 -143 0 -78 76 -130 143 -98 18 8 119 102 225 208
l192 193 0 49 0 48 -192 193 c-175 177 -232 224 -270 224 -7 0 -26 -7 -42 -15z"/>
<path d="M256 1773 c-216 -213 -236 -240 -212 -296 8 -18 103 -121 213 -229
177 -176 203 -198 232 -198 64 0 110 42 111 100 0 45 -14 66 -119 173 l-86 87
582 0 c430 0 589 3 608 12 29 13 55 55 55 88 0 37 -30 81 -65 96 -28 12 -135
14 -607 14 l-572 0 102 104 c85 86 102 108 102 134 0 68 -44 112 -111 112 -28
0 -56 -24 -233 -197z"/>
</g>
</svg>
